<svg width="1200" height="800" viewBox="0 0 1200 800" fill="none" xmlns="http://www.w3.org/2000/svg">
  <rect width="1200" height="800" fill="#0F172A"/>
  <rect x="70" y="70" width="1060" height="660" rx="40" fill="url(#bg1)"/>
  <circle cx="980" cy="180" r="120" fill="#38BDF8" fill-opacity="0.15"/>
  <circle cx="220" cy="640" r="150" fill="#60A5FA" fill-opacity="0.12"/>
  <rect x="360" y="120" width="420" height="560" rx="46" fill="#020617"/>
  <rect x="382" y="145" width="376" height="510" rx="32" fill="url(#screen1)"/>
  <circle cx="570" cy="173" r="7" fill="#94A3B8"/>
  <rect x="537" y="170" width="66" height="6" rx="3" fill="#334155"/>
  <circle cx="700" cy="220" r="38" fill="#1E293B"/>
  <circle cx="700" cy="220" r="21" stroke="#38BDF8" stroke-width="6"/>
  <circle cx="632" cy="270" r="28" fill="#1E293B"/>
  <circle cx="632" cy="270" r="15" stroke="#38BDF8" stroke-width="5"/>
  <circle cx="705" cy="295" r="28" fill="#1E293B"/>
  <circle cx="705" cy="295" r="15" stroke="#38BDF8" stroke-width="5"/>
  <rect x="430" y="500" width="280" height="10" rx="5" fill="#E2E8F0" fill-opacity="0.5"/>
  <rect x="430" y="530" width="220" height="10" rx="5" fill="#E2E8F0" fill-opacity="0.35"/>
  <text x="100" y="625" fill="#E2E8F0" font-family="Arial, sans-serif" font-size="56" font-weight="700">Galaxy Pro X1</text>
  <text x="100" y="680" fill="#7DD3FC" font-family="Arial, sans-serif" font-size="30">120Hz AMOLED • 108MP Camera • 5000mAh</text>
  <defs>
    <linearGradient id="bg1" x1="70" y1="70" x2="1130" y2="730" gradientUnits="userSpaceOnUse">
      <stop stop-color="#1E293B"/>
      <stop offset="1" stop-color="#0F172A"/>
    </linearGradient>
    <linearGradient id="screen1" x1="382" y1="145" x2="758" y2="655" gradientUnits="userSpaceOnUse">
      <stop stop-color="#38BDF8"/>
      <stop offset="0.55" stop-color="#2563EB"/>
      <stop offset="1" stop-color="#0F172A"/>
    </linearGradient>
  </defs>
</svg>
